<svg xmlns="http://www.w3.org/2000/svg" xmlns:xlink="http://www.w3.org/1999/xlink" width="18" height="18" viewBox="0 0 18 18">
    <defs>
        <path id="a" d="M0 0h18v18H0z"/>
    </defs>
    <g fill="none" fill-rule="evenodd" opacity=".796">
        <mask id="b" fill="#fff">
            <use xlink:href="#a"/>
        </mask>
        <path fill="#262626" d="M15.961 4.746a.779.779 0 0 1-.234.574.78.78 0 0 1-.574.235h-2.04a.781.781 0 0 1-.574-.235.78.78 0 0 1-.234-.574V2.812c0-.218.078-.408.234-.568a.772.772 0 0 1 .575-.24h2.039a.77.77 0 0 1 .574.24c.156.16.234.35.234.568v1.934zm0 10.465c0 .203-.07.373-.21.51a.699.699 0 0 1-.505.205H2.719a.692.692 0 0 1-.51-.205.691.691 0 0 1-.205-.51V7.617h1.652a5.058 5.058 0 0 0-.234 1.536c0 1.5.547 2.779 1.64 3.838 1.095 1.058 2.41 1.587 3.95 1.587a5.632 5.632 0 0 0 2.813-.726 5.475 5.475 0 0 0 2.04-1.975c.499-.832.749-1.74.749-2.724 0-.531-.079-1.043-.235-1.536h1.582v7.594zM6.463 6.487C7.17 5.803 8.02 5.46 9.013 5.46c1 0 1.852.342 2.56 1.026.707.683 1.06 1.51 1.06 2.478 0 .969-.353 1.795-1.06 2.478-.708.684-1.56 1.026-2.56 1.026a3.537 3.537 0 0 1-2.55-1.026c-.707-.683-1.06-1.51-1.06-2.478 0-.969.353-1.795 1.06-2.478zM17.32.68A2.22 2.22 0 0 0 15.692 0H2.309a2.22 2.22 0 0 0-1.63.68A2.22 2.22 0 0 0 0 2.31v13.383c0 .632.227 1.175.68 1.628.453.454.996.68 1.629.68h13.383a2.22 2.22 0 0 0 1.628-.68 2.22 2.22 0 0 0 .68-1.629V2.31A2.22 2.22 0 0 0 17.32.68z" mask="url(#b)"/>
    </g>
</svg>
