<svg xmlns="http://www.w3.org/2000/svg" xmlns:xlink="http://www.w3.org/1999/xlink" width="18" height="14" viewBox="0 0 18 14">
    <defs>
        <path id="a" d="M0 0h18v14H0z"/>
    </defs>
    <g fill="none" fill-rule="evenodd" opacity=".796">
        <mask id="b" fill="#fff">
            <use xlink:href="#a"/>
        </mask>
        <path fill="#262626" d="M0 12.412A10.796 10.796 0 0 0 5.66 14c6.857 0 10.731-5.542 10.497-10.513A7.327 7.327 0 0 0 18 1.657a7.636 7.636 0 0 1-2.121.556A3.573 3.573 0 0 0 17.502.258a7.59 7.59 0 0 1-2.345.858A3.765 3.765 0 0 0 12.462 0C10.08 0 8.326 2.129 8.865 4.34c-3.07-.148-5.79-1.555-7.612-3.693C.286 2.235.751 4.314 2.396 5.366a3.807 3.807 0 0 1-1.673-.442C.683 6.56 1.91 8.092 3.685 8.434a3.865 3.865 0 0 1-1.667.06c.47 1.404 1.833 2.426 3.449 2.454A7.665 7.665 0 0 1 0 12.412" mask="url(#b)"/>
    </g>
</svg>
